<?xml version="1.0" standalone="no"?>
<!DOCTYPE svg PUBLIC "-//W3C//DTD SVG 20010904//EN"
 "http://www.w3.org/TR/2001/REC-SVG-20010904/DTD/svg10.dtd">
<svg version="1.0" xmlns="http://www.w3.org/2000/svg"
 width="74.000000pt" height="74.000000pt" viewBox="0 0 74.000000 74.000000"
 preserveAspectRatio="xMidYMid meet">
<metadata>
Created by potrace 1.14, written by Peter Selinger 2001-2017
</metadata>
<g transform="translate(0.000000,74.000000) scale(0.100000,-0.100000)"
fill="#000000" stroke="none">
<path d="M130 641 l0 -40 181 -3 181 -3 34 -37 c28 -31 34 -46 34 -82 0 -86
-60 -126 -190 -126 l-80 0 0 -35 0 -35 100 0 c109 0 152 14 197 62 102 109 43
295 -104 329 -21 5 -109 9 -195 9 l-158 0 0 -39z"/>
<path d="M130 285 l0 -225 38 0 37 0 0 187 0 188 129 5 c104 4 131 8 139 21 6
9 7 24 4 33 -6 14 -28 16 -177 16 l-170 0 0 -225z"/>
<path d="M498 203 c-16 -2 -28 -6 -28 -9 0 -3 17 -34 37 -69 37 -64 38 -65 81
-65 l44 0 -41 73 c-41 74 -46 77 -93 70z"/>
</g>
</svg>
